<?xml version="1.0" encoding="UTF-8" standalone="no"?>
<svg
   width="100%"
   height="100%"
   viewBox="0 0 30 380"
   version="1.1"
   xml:space="preserve"
   style="fill-rule:evenodd;clip-rule:evenodd;stroke-linecap:round;stroke-linejoin:round;stroke-miterlimit:1.5;"
   id="svg47"
   sodipodi:docname="OrestesOneMem.svg"
   inkscape:version="1.3.2 (091e20e, 2023-11-25)"
   xmlns:inkscape="http://www.inkscape.org/namespaces/inkscape"
   xmlns:sodipodi="http://sodipodi.sourceforge.net/DTD/sodipodi-0.dtd"
   xmlns="http://www.w3.org/2000/svg"
   xmlns:svg="http://www.w3.org/2000/svg"><defs
   id="defs47" /><sodipodi:namedview
   id="namedview47"
   pagecolor="#ffffff"
   bordercolor="#000000"
   borderopacity="0.25"
   inkscape:showpageshadow="2"
   inkscape:pageopacity="0.0"
   inkscape:pagecheckerboard="0"
   inkscape:deskcolor="#d1d1d1"
   inkscape:zoom="7.9656663"
   inkscape:cx="24.731139"
   inkscape:cy="103.50672"
   inkscape:window-width="1896"
   inkscape:window-height="1168"
   inkscape:window-x="1662"
   inkscape:window-y="1787"
   inkscape:window-maximized="0"
   inkscape:current-layer="panel" />
    <g
   id="panel"
   transform="matrix(0.834722,0,0,1.04324,-811.337,250.623)">
        <g
   transform="matrix(0.599002,0,0,0.958552,971.985,-240.242)"
   id="g1">
            <rect
   x="0"
   y="0"
   width="60"
   height="380"
   style="fill:rgb(64,64,64);"
   id="rect1" />
        </g>
        <g
   transform="matrix(0.212535,0,0,1.76292,978.368,-852.772)"
   id="g2">
            <rect
   x="-30.034"
   y="347.456"
   width="169.102"
   height="16.91"
   style="fill:rgb(10,10,44);fill-opacity:0.8;"
   id="rect2" />
        </g>
        <g
   transform="matrix(0.212535,0,0,1.81961,978.368,-538.829)"
   id="g3">
            <rect
   x="-30.034"
   y="347.456"
   width="169.102"
   height="16.91"
   style="fill:rgb(10,10,44);fill-opacity:0.8;"
   id="rect3" />
        </g>
        <g
   transform="matrix(1.60469,0,0,25.5659,911.989,-292.473)"
   id="g4">
            <rect
   x="37.388"
   y="2.043"
   width="22.397"
   height="14.247"
   style="fill:none;stroke:rgb(32,6,118);stroke-opacity:0.7;stroke-width:0.03px;"
   id="rect4" />
        </g>
        <g
   transform="matrix(0.72137,0,0,0.72137,275.731,27.4823)"
   id="g18">
            <g
   transform="matrix(1.198,0,0,0.958552,893.633,-224.914)"
   id="g11">
                <g
   transform="matrix(9,0,0,9,64.0056,347.267)"
   id="g5">
                    <path
   d="M0.919,-0L0.762,-0L0.762,-0.308C0.762,-0.391 0.732,-0.432 0.671,-0.432C0.643,-0.432 0.62,-0.42 0.602,-0.395C0.583,-0.369 0.574,-0.339 0.574,-0.303L0.574,-0L0.417,-0L0.417,-0.312C0.417,-0.392 0.387,-0.432 0.327,-0.432C0.298,-0.432 0.274,-0.42 0.256,-0.396C0.238,-0.372 0.229,-0.341 0.229,-0.301L0.229,-0L0.072,-0L0.072,-0.54L0.229,-0.54L0.229,-0.456L0.231,-0.456C0.25,-0.486 0.275,-0.51 0.307,-0.528C0.338,-0.545 0.371,-0.553 0.405,-0.553C0.481,-0.553 0.533,-0.519 0.561,-0.451C0.603,-0.519 0.663,-0.553 0.743,-0.553C0.86,-0.553 0.919,-0.481 0.919,-0.335L0.919,-0Z"
   style="fill:white;fill-opacity:0.9;fill-rule:nonzero;"
   id="path4" />
                </g>
                <g
   transform="matrix(9,0,0,9,72.978,347.267)"
   id="g6">
                    <path
   d="M0.551,-0.226L0.196,-0.226C0.201,-0.142 0.252,-0.1 0.347,-0.1C0.407,-0.1 0.459,-0.115 0.505,-0.144L0.505,-0.028C0.456,-0.001 0.391,0.013 0.312,0.013C0.226,0.013 0.159,-0.011 0.111,-0.06C0.063,-0.108 0.04,-0.176 0.04,-0.262C0.04,-0.348 0.065,-0.419 0.116,-0.472C0.167,-0.526 0.23,-0.553 0.307,-0.553C0.384,-0.553 0.443,-0.53 0.487,-0.484C0.53,-0.437 0.551,-0.374 0.551,-0.292L0.551,-0.226ZM0.404,-0.324C0.404,-0.405 0.372,-0.445 0.306,-0.445C0.279,-0.445 0.255,-0.434 0.234,-0.412C0.214,-0.39 0.201,-0.361 0.195,-0.324L0.404,-0.324Z"
   style="fill:white;fill-opacity:0.9;fill-rule:nonzero;"
   id="path5" />
                </g>
                <g
   transform="matrix(9,0,0,9,78.3513,347.267)"
   id="g7">
                    <rect
   x="0.069"
   y="-0.799"
   width="0.157"
   height="0.799"
   style="fill:white;fill-opacity:0.9;fill-rule:nonzero;"
   id="rect6" />
                </g>
                <g
   transform="matrix(9,0,0,9,81.1494,347.267)"
   id="g8">
                    <path
   d="M0.593,-0L0.436,-0L0.436,-0.076L0.433,-0.076C0.395,-0.017 0.339,0.013 0.264,0.013C0.195,0.013 0.141,-0.011 0.1,-0.06C0.06,-0.108 0.04,-0.174 0.04,-0.258C0.04,-0.346 0.062,-0.418 0.108,-0.472C0.153,-0.526 0.212,-0.553 0.286,-0.553C0.356,-0.553 0.405,-0.528 0.433,-0.477L0.436,-0.477L0.438,-0.707L0.593,-0.658L0.593,-0ZM0.438,-0.306C0.438,-0.342 0.427,-0.372 0.405,-0.396C0.383,-0.42 0.356,-0.432 0.323,-0.432C0.284,-0.432 0.254,-0.417 0.232,-0.386C0.21,-0.356 0.199,-0.315 0.199,-0.263C0.199,-0.213 0.21,-0.175 0.231,-0.148C0.252,-0.121 0.281,-0.108 0.318,-0.108C0.353,-0.108 0.382,-0.122 0.404,-0.15C0.427,-0.179 0.438,-0.215 0.438,-0.261L0.438,-0.306Z"
   style="fill:white;fill-opacity:0.9;fill-rule:nonzero;"
   id="path7" />
                </g>
                <g
   transform="matrix(9,0,0,9,87.2654,347.267)"
   id="g9">
                    <path
   d="M0.551,-0.226L0.196,-0.226C0.201,-0.142 0.252,-0.1 0.347,-0.1C0.407,-0.1 0.459,-0.115 0.505,-0.144L0.505,-0.028C0.456,-0.001 0.391,0.013 0.312,0.013C0.226,0.013 0.159,-0.011 0.111,-0.06C0.063,-0.108 0.04,-0.176 0.04,-0.262C0.04,-0.348 0.065,-0.419 0.116,-0.472C0.167,-0.526 0.23,-0.553 0.307,-0.553C0.384,-0.553 0.443,-0.53 0.487,-0.484C0.53,-0.437 0.551,-0.374 0.551,-0.292L0.551,-0.226ZM0.404,-0.324C0.404,-0.405 0.372,-0.445 0.306,-0.445C0.279,-0.445 0.255,-0.434 0.234,-0.412C0.214,-0.39 0.201,-0.361 0.195,-0.324L0.404,-0.324Z"
   style="fill:white;fill-opacity:0.9;fill-rule:nonzero;"
   id="path8" />
                </g>
                <g
   transform="matrix(9,0,0,9,92.6386,347.267)"
   id="g10">
                    <path
   d="M0.416,-0.397C0.397,-0.408 0.374,-0.414 0.346,-0.414C0.31,-0.414 0.282,-0.4 0.261,-0.373C0.24,-0.345 0.229,-0.308 0.229,-0.26L0.229,-0L0.072,-0L0.072,-0.54L0.229,-0.54L0.229,-0.438L0.231,-0.438C0.257,-0.512 0.305,-0.549 0.374,-0.549C0.392,-0.549 0.406,-0.547 0.416,-0.543L0.416,-0.397Z"
   style="fill:white;fill-opacity:0.9;fill-rule:nonzero;"
   id="path9" />
                </g>
            </g>
            <g
   transform="matrix(1.198,0,0,0.958552,893.495,-231.786)"
   id="g17">
                <g
   transform="matrix(9,0,0,9,68.6657,347.267)"
   id="g12">
                    <path
   d="M0.058,-0.145C0.112,-0.112 0.165,-0.096 0.216,-0.096C0.281,-0.096 0.314,-0.113 0.314,-0.148C0.314,-0.173 0.287,-0.193 0.233,-0.21C0.166,-0.231 0.12,-0.254 0.095,-0.28C0.07,-0.305 0.058,-0.34 0.058,-0.383C0.058,-0.436 0.079,-0.478 0.122,-0.508C0.165,-0.538 0.221,-0.553 0.291,-0.553C0.34,-0.553 0.388,-0.546 0.434,-0.531L0.434,-0.407C0.392,-0.432 0.346,-0.444 0.295,-0.444C0.27,-0.444 0.25,-0.44 0.235,-0.431C0.22,-0.422 0.212,-0.41 0.212,-0.396C0.212,-0.371 0.235,-0.351 0.28,-0.335C0.329,-0.319 0.366,-0.304 0.39,-0.291C0.415,-0.278 0.434,-0.26 0.447,-0.238C0.459,-0.216 0.466,-0.191 0.466,-0.163C0.466,-0.107 0.444,-0.064 0.399,-0.033C0.354,-0.002 0.295,0.013 0.22,0.013C0.162,0.013 0.107,0.004 0.058,-0.015L0.058,-0.145Z"
   style="fill:white;fill-opacity:0.9;fill-rule:nonzero;"
   id="path11" />
                </g>
                <g
   transform="matrix(9,0,0,9,73.2436,347.267)"
   id="g13">
                    <path
   d="M0.39,-0.006C0.366,0.007 0.33,0.013 0.282,0.013C0.167,0.013 0.11,-0.047 0.11,-0.167L0.11,-0.422L0.021,-0.422L0.021,-0.54L0.11,-0.54L0.11,-0.659L0.267,-0.704L0.267,-0.54L0.39,-0.54L0.39,-0.422L0.267,-0.422L0.267,-0.195C0.267,-0.137 0.289,-0.108 0.335,-0.108C0.353,-0.108 0.371,-0.114 0.39,-0.124L0.39,-0.006Z"
   style="fill:white;fill-opacity:0.9;fill-rule:nonzero;"
   id="path12" />
                </g>
                <g
   transform="matrix(6.6,0,0,6.6,77.1051,347.267)"
   id="g14">
                    <path
   d="M0.106,0.032L0.043,-0.021L0.122,-0.115C0.067,-0.183 0.04,-0.268 0.04,-0.368C0.04,-0.487 0.075,-0.584 0.144,-0.658C0.213,-0.732 0.305,-0.769 0.418,-0.769C0.5,-0.769 0.571,-0.748 0.63,-0.706L0.698,-0.785L0.761,-0.733L0.689,-0.65C0.748,-0.581 0.778,-0.493 0.778,-0.384C0.778,-0.266 0.743,-0.17 0.674,-0.097C0.605,-0.023 0.516,0.013 0.406,0.013C0.32,0.013 0.246,-0.011 0.182,-0.059L0.106,0.032ZM0.54,-0.6C0.506,-0.628 0.463,-0.642 0.413,-0.642C0.349,-0.642 0.297,-0.617 0.258,-0.569C0.218,-0.52 0.199,-0.455 0.199,-0.375C0.199,-0.319 0.208,-0.273 0.227,-0.234L0.54,-0.6ZM0.275,-0.165C0.311,-0.131 0.356,-0.114 0.409,-0.114C0.473,-0.114 0.524,-0.137 0.563,-0.184C0.601,-0.231 0.62,-0.294 0.62,-0.374C0.62,-0.435 0.61,-0.488 0.588,-0.533L0.275,-0.165Z"
   style="fill:white;fill-opacity:0.9;fill-rule:nonzero;"
   id="path13" />
                </g>
                <g
   transform="matrix(9,0,0,9,82.6053,347.267)"
   id="g15">
                    <path
   d="M0.551,-0.226L0.196,-0.226C0.201,-0.142 0.252,-0.1 0.347,-0.1C0.407,-0.1 0.459,-0.115 0.505,-0.144L0.505,-0.028C0.456,-0.001 0.391,0.013 0.312,0.013C0.226,0.013 0.159,-0.011 0.111,-0.06C0.063,-0.108 0.04,-0.176 0.04,-0.262C0.04,-0.348 0.065,-0.419 0.116,-0.472C0.167,-0.526 0.23,-0.553 0.307,-0.553C0.384,-0.553 0.443,-0.53 0.487,-0.484C0.53,-0.437 0.551,-0.374 0.551,-0.292L0.551,-0.226ZM0.404,-0.324C0.404,-0.405 0.372,-0.445 0.306,-0.445C0.279,-0.445 0.255,-0.434 0.234,-0.412C0.214,-0.39 0.201,-0.361 0.195,-0.324L0.404,-0.324Z"
   style="fill:white;fill-opacity:0.9;fill-rule:nonzero;"
   id="path14" />
                </g>
                <g
   transform="matrix(9,0,0,9,87.9786,347.267)"
   id="g16">
                    <path
   d="M0.416,-0.397C0.397,-0.408 0.374,-0.414 0.346,-0.414C0.31,-0.414 0.282,-0.4 0.261,-0.373C0.24,-0.345 0.229,-0.308 0.229,-0.26L0.229,-0L0.072,-0L0.072,-0.54L0.229,-0.54L0.229,-0.438L0.231,-0.438C0.257,-0.512 0.305,-0.549 0.374,-0.549C0.392,-0.549 0.406,-0.547 0.416,-0.543L0.416,-0.397Z"
   style="fill:white;fill-opacity:0.9;fill-rule:nonzero;"
   id="path15" />
                </g>
            </g>
        </g>
        
        <g
   transform="matrix(0.917948,0,0,1.34672,966.566,-201.542)"
   id="g31">
            <path
   d="M38.128,207.245C38.128,206.459 36.958,205.822 35.517,205.822L15.441,205.822C14.001,205.822 12.831,206.459 12.831,207.245L12.831,213.815C12.831,214.601 14.001,215.238 15.441,215.238L35.517,215.238C36.958,215.238 38.128,214.601 38.128,213.815L38.128,207.245Z"
   style="stroke:rgb(77,77,77);stroke-width:0.38px;stroke-linecap:square;"
   id="path30" />
        </g>
        <g
   transform="matrix(1.198,0,0,0.958552,940.281,-84.0726)"
   id="g36">
            <g
   transform="matrix(6.4,0,0,6.4,33.595,51.8924)"
   id="g32">
                <path
   d="M0.2,-0.263L0.2,-0L0.073,-0L0.073,-0.715C0.158,-0.718 0.207,-0.72 0.222,-0.72C0.335,-0.72 0.417,-0.703 0.469,-0.668C0.522,-0.634 0.548,-0.579 0.548,-0.506C0.548,-0.342 0.451,-0.26 0.258,-0.26C0.243,-0.26 0.224,-0.261 0.2,-0.263ZM0.2,-0.605L0.2,-0.376C0.222,-0.374 0.239,-0.373 0.251,-0.373C0.309,-0.373 0.351,-0.382 0.378,-0.402C0.405,-0.421 0.418,-0.452 0.418,-0.496C0.418,-0.57 0.358,-0.607 0.239,-0.607C0.225,-0.607 0.213,-0.607 0.2,-0.605Z"
   style="fill:white;fill-opacity:0.9;fill-rule:nonzero;"
   id="path31" />
            </g>
            <g
   transform="matrix(6.4,0,0,6.4,37.3512,51.8924)"
   id="g33">
                <path
   d="M0.477,-0L0.286,-0.295C0.266,-0.296 0.24,-0.297 0.205,-0.299L0.205,-0L0.073,-0L0.073,-0.715C0.08,-0.715 0.108,-0.717 0.156,-0.719C0.204,-0.721 0.242,-0.723 0.271,-0.723C0.453,-0.723 0.544,-0.652 0.544,-0.512C0.544,-0.469 0.531,-0.431 0.506,-0.396C0.481,-0.361 0.45,-0.337 0.412,-0.322L0.623,-0L0.477,-0ZM0.205,-0.605L0.205,-0.406C0.229,-0.404 0.246,-0.403 0.259,-0.403C0.312,-0.403 0.351,-0.411 0.375,-0.426C0.4,-0.441 0.412,-0.47 0.412,-0.513C0.412,-0.548 0.399,-0.573 0.373,-0.587C0.346,-0.601 0.305,-0.608 0.248,-0.608C0.234,-0.608 0.22,-0.607 0.205,-0.605Z"
   style="fill:white;fill-opacity:0.9;fill-rule:nonzero;"
   id="path32" />
            </g>
            <g
   transform="matrix(6.4,0,0,6.4,41.2606,51.8924)"
   id="g34">
                <path
   d="M0.2,-0.603L0.2,-0.435L0.437,-0.435L0.437,-0.327L0.2,-0.327L0.2,-0.113L0.524,-0.113L0.524,-0L0.073,-0L0.073,-0.715L0.53,-0.715L0.53,-0.603L0.2,-0.603Z"
   style="fill:white;fill-opacity:0.9;fill-rule:nonzero;"
   id="path33" />
            </g>
            <g
   transform="matrix(6.4,0,0,6.4,44.9012,51.8924)"
   id="g35">
                <path
   d="M0.34,0.01L0.27,0.01L0.002,-0.715L0.142,-0.715L0.308,-0.232L0.482,-0.715L0.619,-0.715L0.34,0.01Z"
   style="fill:white;fill-opacity:0.9;fill-rule:nonzero;"
   id="path34" />
            </g>
        </g>
        <g
   transform="matrix(1.198,0,0,0.958552,940.309,-53.9363)"
   id="g41">
            <g
   transform="matrix(6.4,0,0,6.4,33.4012,51.8924)"
   id="g37">
                <path
   d="M0.542,0.01L0.195,-0.443L0.195,0L0.073,0L0.073,-0.715L0.134,-0.715L0.472,-0.284L0.472,-0.715L0.594,-0.715L0.594,0.01L0.542,0.01Z"
   style="fill:white;fill-opacity:0.9;fill-rule:nonzero;"
   id="path36" />
            </g>
            <g
   transform="matrix(6.4,0,0,6.4,37.6731,51.8924)"
   id="g38">
                <path
   d="M0.2,-0.603L0.2,-0.435L0.437,-0.435L0.437,-0.327L0.2,-0.327L0.2,-0.113L0.524,-0.113L0.524,-0L0.073,-0L0.073,-0.715L0.53,-0.715L0.53,-0.603L0.2,-0.603Z"
   style="fill:white;fill-opacity:0.9;fill-rule:nonzero;"
   id="path37" />
            </g>
            <g
   transform="matrix(6.4,0,0,6.4,41.3137,51.8924)"
   id="g39">
                <path
   d="M0.46,-0L0.291,-0.257L0.135,-0L0.002,-0L0.217,-0.371L0.02,-0.716L0.149,-0.715L0.294,-0.474L0.454,-0.715L0.587,-0.715L0.36,-0.369L0.598,-0L0.46,-0Z"
   style="fill:white;fill-opacity:0.9;fill-rule:nonzero;"
   id="path38" />
            </g>
            <g
   transform="matrix(6.4,0,0,6.4,45.1575,51.8924)"
   id="g40">
                <path
   d="M0.364,-0.603L0.364,-0L0.237,-0L0.237,-0.603L0.01,-0.603L0.01,-0.715L0.602,-0.715L0.602,-0.603L0.364,-0.603Z"
   style="fill:white;fill-opacity:0.9;fill-rule:nonzero;"
   id="path39" />
            </g>
        </g>
        <g
   transform="matrix(1.198,0,0,0.958552,940.552,-7.75729)"
   id="g47">
            <g
   transform="matrix(6.4,0,0,6.4,31.9606,51.8924)"
   id="g42">
                <path
   d="M0.491,-0L0.438,-0.145L0.193,-0.145L0.144,-0L0.002,-0L0.288,-0.725L0.343,-0.725L0.631,-0L0.491,-0ZM0.315,-0.506L0.229,-0.242L0.401,-0.242L0.315,-0.506Z"
   style="fill:white;fill-opacity:0.9;fill-rule:nonzero;"
   id="path41" />
            </g>
            <g
   transform="matrix(6.4,0,0,6.4,36.0137,51.8924)"
   id="g43">
                <path
   d="M0.2,-0.263L0.2,-0L0.073,-0L0.073,-0.715C0.158,-0.718 0.207,-0.72 0.222,-0.72C0.335,-0.72 0.417,-0.703 0.469,-0.668C0.522,-0.634 0.548,-0.579 0.548,-0.506C0.548,-0.342 0.451,-0.26 0.258,-0.26C0.243,-0.26 0.224,-0.261 0.2,-0.263ZM0.2,-0.605L0.2,-0.376C0.222,-0.374 0.239,-0.373 0.251,-0.373C0.309,-0.373 0.351,-0.382 0.378,-0.402C0.405,-0.421 0.418,-0.452 0.418,-0.496C0.418,-0.57 0.358,-0.607 0.239,-0.607C0.225,-0.607 0.213,-0.607 0.2,-0.605Z"
   style="fill:white;fill-opacity:0.9;fill-rule:nonzero;"
   id="path42" />
            </g>
            <g
   transform="matrix(6.4,0,0,6.4,39.77,51.8924)"
   id="g44">
                <path
   d="M0.2,-0.263L0.2,-0L0.073,-0L0.073,-0.715C0.158,-0.718 0.207,-0.72 0.222,-0.72C0.335,-0.72 0.417,-0.703 0.469,-0.668C0.522,-0.634 0.548,-0.579 0.548,-0.506C0.548,-0.342 0.451,-0.26 0.258,-0.26C0.243,-0.26 0.224,-0.261 0.2,-0.263ZM0.2,-0.605L0.2,-0.376C0.222,-0.374 0.239,-0.373 0.251,-0.373C0.309,-0.373 0.351,-0.382 0.378,-0.402C0.405,-0.421 0.418,-0.452 0.418,-0.496C0.418,-0.57 0.358,-0.607 0.239,-0.607C0.225,-0.607 0.213,-0.607 0.2,-0.605Z"
   style="fill:white;fill-opacity:0.9;fill-rule:nonzero;"
   id="path43" />
            </g>
            <g
   transform="matrix(6.4,0,0,6.4,43.5262,51.8924)"
   id="g45">
                <path
   d="M0.073,-0L0.073,-0.715L0.2,-0.715L0.2,-0.113L0.523,-0.113L0.523,-0L0.073,-0Z"
   style="fill:white;fill-opacity:0.9;fill-rule:nonzero;"
   id="path44" />
            </g>
            <g
   transform="matrix(6.4,0,0,6.4,46.5887,51.8924)"
   id="g46">
                <path
   d="M0.371,-0.293L0.371,-0L0.244,-0L0.244,-0.293L0.002,-0.715L0.137,-0.715L0.307,-0.41L0.477,-0.715L0.611,-0.715L0.371,-0.293Z"
   style="fill:white;fill-opacity:0.9;fill-rule:nonzero;"
   id="path45" />
            </g>
        </g><g
   id="g48"><path
     d="m -124.57446,11.896339 q 0.47396,0.520835 0.72396,1.276046 0.25521,0.755211 0.25521,1.713547 0,0.958336 -0.26042,1.718756 -0.25521,0.75521 -0.71875,1.26042 -0.47917,0.526044 -1.13542,0.791669 -0.65105,0.265626 -1.48959,0.265626 -0.81771,0 -1.48959,-0.270834 -0.66667,-0.270834 -1.13542,-0.786461 -0.46875,-0.515626 -0.72396,-1.265629 -0.25,-0.750002 -0.25,-1.713547 0,-0.94792 0.25,-1.697922 0.25,-0.755211 0.72917,-1.291671 0.45833,-0.510418 1.13542,-0.781252 0.68229,-0.270834 1.48438,-0.270834 0.83334,0 1.4948,0.276042 0.66667,0.270834 1.13021,0.776044 z m -0.0937,2.989593 q 0,-1.510421 -0.67709,-2.328132 -0.67708,-0.822919 -1.84896,-0.822919 -1.1823,0 -1.85938,0.822919 -0.67188,0.817711 -0.67188,2.328132 0,1.526047 0.6875,2.338549 0.6875,0.807294 1.84376,0.807294 1.15625,0 1.83855,-0.807294 0.6875,-0.812502 0.6875,-2.338549 z m 6.26043,-0.875003 h -0.0521 q -0.21875,-0.05208 -0.42708,-0.07292 -0.20313,-0.02604 -0.48438,-0.02604 -0.45313,0 -0.875,0.203125 -0.42188,0.197918 -0.81251,0.515627 v 4.130221 h -0.97917 v -5.817726 h 0.97917 v 0.859377 q 0.58334,-0.468751 1.02605,-0.66146 0.44792,-0.197917 0.91146,-0.197917 0.25521,0 0.36979,0.01563 0.11459,0.01042 0.34375,0.04687 z m 5.79169,1.942715 h -4.28647 q 0,0.53646 0.16146,0.937503 0.16146,0.395834 0.44271,0.651044 0.27083,0.25 0.64062,0.375001 0.375,0.125 0.82292,0.125 0.59375,0 1.19271,-0.234376 0.60417,-0.239584 0.85938,-0.468751 h 0.0521 v 1.067712 q -0.4948,0.208334 -1.01042,0.348959 -0.51563,0.140625 -1.08334,0.140625 -1.44792,0 -2.26042,-0.781252 -0.81251,-0.786461 -0.81251,-2.229174 0,-1.427088 0.77605,-2.265632 0.78125,-0.838544 2.05209,-0.838544 1.17708,0 1.8125,0.687502 0.64063,0.687502 0.64063,1.953131 z m -0.95313,-0.750003 q -0.005,-0.770835 -0.39062,-1.192712 -0.38021,-0.421876 -1.16147,-0.421876 -0.78646,0 -1.25521,0.463543 -0.46354,0.463543 -0.52604,1.151045 z m 6.59377,1.880215 q 0,0.796877 -0.66146,1.307296 -0.65625,0.510418 -1.79688,0.510418 -0.64584,0 -1.1875,-0.151042 -0.53646,-0.156251 -0.90105,-0.338543 v -1.098962 h 0.0521 q 0.46354,0.34896 1.03125,0.557294 0.56771,0.203125 1.08854,0.203125 0.64584,0 1.01042,-0.208334 0.36459,-0.208334 0.36459,-0.656252 0,-0.343751 -0.19792,-0.520835 -0.19792,-0.177084 -0.76042,-0.302084 -0.20833,-0.04687 -0.54688,-0.109375 -0.33333,-0.0625 -0.60937,-0.135418 -0.76563,-0.203125 -1.08855,-0.593751 -0.31771,-0.395835 -0.31771,-0.968754 0,-0.359376 0.14584,-0.677085 0.15104,-0.317709 0.45312,-0.56771 0.29167,-0.244793 0.73959,-0.385418 0.45313,-0.145834 1.01042,-0.145834 0.52083,0 1.05209,0.130209 0.53646,0.125 0.89062,0.307293 v 1.046878 h -0.0521 q -0.375,-0.276043 -0.91146,-0.463543 -0.53646,-0.192709 -1.05209,-0.192709 -0.53646,0 -0.90625,0.208334 -0.36979,0.203125 -0.36979,0.609377 0,0.359376 0.22396,0.541668 0.21875,0.182292 0.70833,0.296876 0.27084,0.0625 0.60417,0.125 0.33854,0.0625 0.5625,0.114584 0.6823,0.156251 1.05209,0.53646 0.36979,0.385418 0.36979,1.020837 z m 4.42189,1.625005 q -0.27604,0.07292 -0.60417,0.119792 -0.32292,0.04687 -0.57812,0.04687 -0.89063,0 -1.35418,-0.479168 -0.46354,-0.479168 -0.46354,-1.536463 v -3.09376 h -0.66146 v -0.822919 h 0.66146 v -1.671881 h 0.97917 v 1.671881 h 2.02084 v 0.822919 h -2.02084 v 2.65105 q 0,0.458335 0.0208,0.718752 0.0208,0.255209 0.14584,0.479168 0.11458,0.208334 0.3125,0.307293 0.20312,0.09375 0.61458,0.09375 0.23959,0 0.50001,-0.06771 0.26041,-0.07292 0.375,-0.119792 h 0.0521 z m 6.052103,-2.755217 h -4.286473 q 0,0.53646 0.16146,0.937503 0.16146,0.395834 0.44271,0.651044 0.270834,0.25 0.640627,0.375001 0.375001,0.125 0.822919,0.125 0.593752,0 1.192713,-0.234376 0.604168,-0.239584 0.859377,-0.468751 h 0.05208 v 1.067712 q -0.494794,0.208334 -1.01042,0.348959 -0.515627,0.140625 -1.083337,0.140625 -1.447923,0 -2.260423,-0.781252 -0.8125,-0.786461 -0.8125,-2.229174 0,-1.427088 0.77604,-2.265632 0.78125,-0.838544 2.052091,-0.838544 1.177087,0 1.812505,0.687502 0.640627,0.687502 0.640627,1.953131 z m -0.953128,-0.750003 q -0.0052,-0.770835 -0.390626,-1.192712 -0.380209,-0.421876 -1.161462,-0.421876 -0.786461,0 -1.255217,0.463543 -0.46354,0.463543 -0.52604,1.151045 z m 6.593772,1.880215 q 0,0.796877 -0.661461,1.307296 -0.656252,0.510418 -1.796881,0.510418 -0.645835,0 -1.187503,-0.151042 -0.53646,-0.156251 -0.901045,-0.338543 v -1.098962 h 0.05208 q 0.463543,0.34896 1.031253,0.557294 0.56771,0.203125 1.088545,0.203125 0.645835,0 1.01042,-0.208334 0.364584,-0.208334 0.364584,-0.656252 0,-0.343751 -0.197917,-0.520835 -0.197917,-0.177084 -0.760419,-0.302084 -0.208334,-0.04687 -0.546877,-0.109375 -0.333334,-0.0625 -0.609377,-0.135418 -0.765627,-0.203125 -1.088545,-0.593751 -0.317709,-0.395835 -0.317709,-0.968754 0,-0.359376 0.145834,-0.677085 0.151042,-0.317709 0.453126,-0.56771 0.291668,-0.244793 0.739586,-0.385418 0.453126,-0.145834 1.01042,-0.145834 0.520835,0 1.052086,0.130209 0.53646,0.125 0.890628,0.307293 v 1.046878 h -0.05208 q -0.375002,-0.276043 -0.911462,-0.463543 -0.53646,-0.192709 -1.052086,-0.192709 -0.53646,0 -0.906253,0.208334 -0.369793,0.203125 -0.369793,0.609377 0,0.359376 0.223959,0.541668 0.218751,0.182292 0.708336,0.296876 0.270834,0.0625 0.604168,0.125 0.338543,0.0625 0.562502,0.114584 0.682294,0.156251 1.052087,0.53646 0.369793,0.385418 0.369793,1.020837 z m 4.484388,-1.244796 h -3.250011 v -0.942711 h 3.250011 z m 7.619815,-3.942721 q 0.47396,0.520835 0.723961,1.276046 0.255209,0.755211 0.255209,1.713547 0,0.958336 -0.260417,1.718756 -0.25521,0.75521 -0.718753,1.26042 -0.479168,0.526044 -1.13542,0.791669 -0.651044,0.265626 -1.489588,0.265626 -0.817711,0 -1.489588,-0.270834 -0.666669,-0.270834 -1.13542,-0.786461 -0.468752,-0.515626 -0.723961,-1.265629 -0.250001,-0.750002 -0.250001,-1.713547 0,-0.94792 0.250001,-1.697922 0.250001,-0.755211 0.729169,-1.291671 0.458335,-0.510418 1.13542,-0.781252 0.682294,-0.270834 1.48438,-0.270834 0.833336,0 1.494796,0.276042 0.666669,0.270834 1.130212,0.776044 z m -0.09375,2.989593 q 0,-1.510421 -0.677085,-2.328132 -0.677086,-0.822919 -1.848965,-0.822919 -1.182295,0 -1.85938,0.822919 -0.671878,0.817711 -0.671878,2.328132 0,1.526047 0.687503,2.338549 0.687502,0.807294 1.843755,0.807294 1.156254,0 1.838548,-0.807294 0.687502,-0.812502 0.687502,-2.338549 z m 7.494814,3.875012 h -0.979169 v -3.31251 q 0,-0.401043 -0.04688,-0.750002 -0.04687,-0.354168 -0.171875,-0.552086 -0.130209,-0.21875 -0.375001,-0.322917 -0.244793,-0.109376 -0.635419,-0.109376 -0.401043,0 -0.838544,0.197918 -0.437502,0.197917 -0.838545,0.50521 v 4.343763 h -0.979169 v -5.817726 h 0.979169 v 0.645835 q 0.458335,-0.38021 0.94792,-0.593752 0.489585,-0.213542 1.005212,-0.213542 0.942711,0 1.437504,0.56771 0.494793,0.56771 0.494793,1.635422 z m 6.755232,-2.8073 h -4.286472 q 0,0.53646 0.161459,0.937503 0.161458,0.395834 0.442709,0.651044 0.270834,0.25 0.640627,0.375001 0.375001,0.125 0.82292,0.125 0.593751,0 1.192712,-0.234376 0.604168,-0.239584 0.859377,-0.468751 h 0.05208 v 1.067712 q -0.494793,0.208334 -1.01042,0.348959 -0.515627,0.140625 -1.083337,0.140625 -1.447921,0 -2.260424,-0.781252 -0.812502,-0.786461 -0.812502,-2.229174 0,-1.427088 0.776044,-2.265632 0.781252,-0.838544 2.05209,-0.838544 1.177087,0 1.812506,0.687502 0.640627,0.687502 0.640627,1.953131 z m -0.953128,-0.750003 q -0.0052,-0.770835 -0.390627,-1.192712 -0.380209,-0.421876 -1.161462,-0.421876 -0.786461,0 -1.255212,0.463543 -0.463543,0.463543 -0.526043,1.151045 z m 5.520847,0.635419 h -3.250011 v -0.942711 h 3.250011 z m 8.744819,2.921884 h -1.031253 v -6.682312 l -2.156257,4.546889 h -0.614585 l -2.140632,-4.546889 v 6.682312 h -0.963545 v -7.755232 h 1.406255 l 2.067714,4.317722 2.000007,-4.317722 h 1.432296 z m 6.875026,-2.8073 h -4.286471 q 0,0.53646 0.161458,0.937503 0.161459,0.395834 0.44271,0.651044 0.270834,0.25 0.640627,0.375001 0.375001,0.125 0.822919,0.125 0.593752,0 1.192712,-0.234376 0.604169,-0.239584 0.859378,-0.468751 h 0.05208 v 1.067712 q -0.494794,0.208334 -1.01042,0.348959 -0.515627,0.140625 -1.083337,0.140625 -1.447921,0 -2.260424,-0.781252 -0.812502,-0.786461 -0.812502,-2.229174 0,-1.427088 0.776044,-2.265632 0.781252,-0.838544 2.05209,-0.838544 1.177087,0 1.812505,0.687502 0.640627,0.687502 0.640627,1.953131 z m -0.953128,-0.750003 q -0.0052,-0.770835 -0.390626,-1.192712 -0.380209,-0.421876 -1.161462,-0.421876 -0.786461,0 -1.255212,0.463543 -0.463543,0.463543 -0.526043,1.151045 z m 10.927118,3.557303 h -0.979169 v -3.31251 q 0,-0.375001 -0.03646,-0.723961 -0.03125,-0.348959 -0.140625,-0.557293 -0.119792,-0.223959 -0.343751,-0.338543 -0.223959,-0.114584 -0.645836,-0.114584 -0.411459,0 -0.822919,0.208334 -0.41146,0.203126 -0.822919,0.520835 0.01563,0.119792 0.02604,0.281251 0.01042,0.156251 0.01042,0.312501 v 3.72397 h -0.979169 v -3.31251 q 0,-0.385418 -0.03646,-0.729169 -0.03125,-0.34896 -0.140625,-0.557293 -0.119792,-0.22396 -0.343751,-0.333335 -0.223959,-0.114584 -0.645836,-0.114584 -0.401043,0 -0.807294,0.197918 -0.401043,0.197917 -0.802086,0.50521 v 4.343763 h -0.97917 v -5.817726 h 0.97917 v 0.645835 q 0.458335,-0.38021 0.911461,-0.593752 0.458335,-0.213542 0.973962,-0.213542 0.593752,0 1.005211,0.250001 0.416668,0.25 0.619794,0.69271 0.593752,-0.500001 1.083337,-0.718752 0.489584,-0.223959 1.046878,-0.223959 0.958336,0 1.411463,0.583335 0.458334,0.578127 0.458334,1.619797 z"
     id="text47"
     style="fill-rule:evenodd;clip-rule:evenodd;stroke-linecap:round;stroke-linejoin:round;stroke-miterlimit:1.5;font-size:10.6667px;font-family:Sans;-inkscape-font-specification:'Sans, Normal';fill:#4cec19"
     transform="matrix(0,-0.9585522,1.1980036,0,971.98468,-240.23523)"
     aria-label="Orestes-One-Mem" /></g>
    </g>
</svg>
